<mxfile host="65bd71144e">
    <diagram id="E_3-LEkxbExB1U1_yM-K" name="PÃ¡gina-1">
        <mxGraphModel dx="1423" dy="461" grid="1" gridSize="10" guides="1" tooltips="1" connect="1" arrows="1" fold="1" page="1" pageScale="1" pageWidth="827" pageHeight="1169" math="0" shadow="0">
            <root>
                <mxCell id="0"/>
                <mxCell id="1" parent="0"/>
                <mxCell id="4" value="" style="edgeStyle=none;html=1;" edge="1" parent="1" source="2">
                    <mxGeometry relative="1" as="geometry">
                        <mxPoint x="310" y="360" as="targetPoint"/>
                    </mxGeometry>
                </mxCell>
                <mxCell id="2" value="INICIO" style="ellipse;whiteSpace=wrap;html=1;fillColor=#a20025;fontColor=#ffffff;strokeColor=#6F0000;" vertex="1" parent="1">
                    <mxGeometry x="250" y="200" width="120" height="80" as="geometry"/>
                </mxCell>
                <mxCell id="7" value="" style="edgeStyle=none;html=1;" edge="1" parent="1" source="5" target="6">
                    <mxGeometry relative="1" as="geometry"/>
                </mxCell>
                <mxCell id="5" value="a = sueldo" style="shape=parallelogram;perimeter=parallelogramPerimeter;whiteSpace=wrap;html=1;fixedSize=1;fillColor=#60a917;fontColor=#ffffff;strokeColor=#2D7600;" vertex="1" parent="1">
                    <mxGeometry x="250" y="360" width="120" height="60" as="geometry"/>
                </mxCell>
                <mxCell id="6" value="a &amp;lt;&amp;nbsp; 945200" style="rhombus;whiteSpace=wrap;html=1;fillColor=#1ba1e2;strokeColor=#006EAF;fontColor=#ffffff;" vertex="1" parent="1">
                    <mxGeometry x="270" y="490" width="80" height="80" as="geometry"/>
                </mxCell>
                <mxCell id="8" value="" style="endArrow=classic;html=1;exitX=0;exitY=0.5;exitDx=0;exitDy=0;" edge="1" parent="1" source="6">
                    <mxGeometry width="50" height="50" relative="1" as="geometry">
                        <mxPoint x="290" y="590" as="sourcePoint"/>
                        <mxPoint x="120" y="570" as="targetPoint"/>
                        <Array as="points">
                            <mxPoint x="120" y="530"/>
                        </Array>
                    </mxGeometry>
                </mxCell>
                <mxCell id="13" value="" style="edgeStyle=none;html=1;" edge="1" parent="1" source="11" target="12">
                    <mxGeometry relative="1" as="geometry"/>
                </mxCell>
                <mxCell id="11" value="b = deuda" style="shape=parallelogram;perimeter=parallelogramPerimeter;whiteSpace=wrap;html=1;fixedSize=1;fillColor=#60a917;fontColor=#ffffff;strokeColor=#2D7600;" vertex="1" parent="1">
                    <mxGeometry x="50" y="570" width="120" height="60" as="geometry"/>
                </mxCell>
                <mxCell id="12" value="b = 1" style="rhombus;whiteSpace=wrap;html=1;fillColor=#1ba1e2;strokeColor=#006EAF;fontColor=#ffffff;" vertex="1" parent="1">
                    <mxGeometry x="70" y="700" width="80" height="80" as="geometry"/>
                </mxCell>
                <mxCell id="14" value="" style="endArrow=classic;html=1;exitX=0.5;exitY=1;exitDx=0;exitDy=0;entryX=0.575;entryY=0;entryDx=0;entryDy=0;entryPerimeter=0;" edge="1" parent="1" source="12" target="17">
                    <mxGeometry width="50" height="50" relative="1" as="geometry">
                        <mxPoint x="110" y="790" as="sourcePoint"/>
                        <mxPoint x="200" y="840" as="targetPoint"/>
                        <Array as="points">
                            <mxPoint x="200" y="780"/>
                        </Array>
                    </mxGeometry>
                </mxCell>
                <mxCell id="15" value="" style="endArrow=classic;html=1;" edge="1" parent="1" target="16">
                    <mxGeometry width="50" height="50" relative="1" as="geometry">
                        <mxPoint x="110" y="780" as="sourcePoint"/>
                        <mxPoint x="20" y="840" as="targetPoint"/>
                        <Array as="points">
                            <mxPoint x="20" y="780"/>
                        </Array>
                    </mxGeometry>
                </mxCell>
                <mxCell id="16" value="su credito fue aceptado" style="rounded=1;whiteSpace=wrap;html=1;fillColor=#fa6800;fontColor=#000000;strokeColor=#C73500;" vertex="1" parent="1">
                    <mxGeometry x="-40" y="810" width="120" height="60" as="geometry"/>
                </mxCell>
                <mxCell id="17" value="su credito fue denegado" style="rounded=1;whiteSpace=wrap;html=1;fillColor=#fa6800;fontColor=#000000;strokeColor=#C73500;" vertex="1" parent="1">
                    <mxGeometry x="130" y="810" width="120" height="60" as="geometry"/>
                </mxCell>
                <mxCell id="18" value="" style="endArrow=classic;html=1;exitX=1;exitY=0.5;exitDx=0;exitDy=0;" edge="1" parent="1" source="6">
                    <mxGeometry width="50" height="50" relative="1" as="geometry">
                        <mxPoint x="220" y="730" as="sourcePoint"/>
                        <mxPoint x="480" y="800" as="targetPoint"/>
                        <Array as="points">
                            <mxPoint x="480" y="530"/>
                        </Array>
                    </mxGeometry>
                </mxCell>
                <mxCell id="19" value="su credito fue denegado" style="rounded=1;whiteSpace=wrap;html=1;fillColor=#fa6800;fontColor=#000000;strokeColor=#C73500;" vertex="1" parent="1">
                    <mxGeometry x="420" y="800" width="120" height="60" as="geometry"/>
                </mxCell>
                <mxCell id="20" value="" style="endArrow=none;html=1;exitX=0.5;exitY=1;exitDx=0;exitDy=0;entryX=0.5;entryY=1;entryDx=0;entryDy=0;" edge="1" parent="1" source="16" target="19">
                    <mxGeometry width="50" height="50" relative="1" as="geometry">
                        <mxPoint x="220" y="830" as="sourcePoint"/>
                        <mxPoint x="270" y="780" as="targetPoint"/>
                        <Array as="points">
                            <mxPoint x="20" y="920"/>
                            <mxPoint x="480" y="920"/>
                        </Array>
                    </mxGeometry>
                </mxCell>
                <mxCell id="21" value="" style="endArrow=none;html=1;exitX=0.5;exitY=1;exitDx=0;exitDy=0;" edge="1" parent="1" source="17">
                    <mxGeometry width="50" height="50" relative="1" as="geometry">
                        <mxPoint x="220" y="830" as="sourcePoint"/>
                        <mxPoint x="190" y="920" as="targetPoint"/>
                    </mxGeometry>
                </mxCell>
                <mxCell id="22" value="" style="endArrow=classic;html=1;" edge="1" parent="1">
                    <mxGeometry width="50" height="50" relative="1" as="geometry">
                        <mxPoint x="250" y="920" as="sourcePoint"/>
                        <mxPoint x="250" y="960" as="targetPoint"/>
                    </mxGeometry>
                </mxCell>
                <mxCell id="25" value="" style="edgeStyle=none;html=1;" edge="1" parent="1" source="23" target="24">
                    <mxGeometry relative="1" as="geometry"/>
                </mxCell>
                <mxCell id="23" value="rta" style="shape=document;whiteSpace=wrap;html=1;boundedLbl=1;fillColor=#76608a;fontColor=#ffffff;strokeColor=#432D57;" vertex="1" parent="1">
                    <mxGeometry x="190" y="960" width="120" height="50" as="geometry"/>
                </mxCell>
                <mxCell id="24" value="FIN" style="ellipse;whiteSpace=wrap;html=1;fillColor=#e51400;fontColor=#ffffff;strokeColor=#B20000;" vertex="1" parent="1">
                    <mxGeometry x="190" y="1040" width="120" height="80" as="geometry"/>
                </mxCell>
            </root>
        </mxGraphModel>
    </diagram>
</mxfile>